<svg width="25" height="24" viewBox="0 0 25 24" fill="none" xmlns="http://www.w3.org/2000/svg">
<g clip-path="url(#clip0_1_1767)">
<path d="M17.5107 19.1753L16.8592 14.2535C16.7669 13.5564 16.4078 12.9151 15.8496 12.4502C15.2913 11.9854 14.5723 11.729 13.8277 11.7292H11.5841C10.8399 11.7294 10.1213 11.9861 9.56348 12.4509C9.00564 12.9157 8.64687 13.5567 8.55459 14.2535L7.90207 19.1753C7.86625 19.4457 7.89182 19.7201 7.97707 19.9805C8.06231 20.2409 8.20529 20.4811 8.3965 20.6854C8.58771 20.8896 8.82278 21.0531 9.0861 21.165C9.34942 21.2769 9.63496 21.3347 9.92376 21.3345H15.49C15.7788 21.3346 16.0642 21.2767 16.3274 21.1647C16.5906 21.0527 16.8255 20.8892 17.0166 20.685C17.2077 20.4808 17.3506 20.2406 17.4358 19.9803C17.521 19.72 17.5465 19.4456 17.5107 19.1753V19.1753Z" stroke="#3C4043" stroke-width="2" stroke-linecap="round" stroke-linejoin="round"/>
<path d="M12.7059 7.88712C14.3926 7.88712 15.7599 6.59699 15.7599 5.00554C15.7599 3.41409 14.3926 2.12396 12.7059 2.12396C11.0193 2.12396 9.65201 3.41409 9.65201 5.00554C9.65201 6.59699 11.0193 7.88712 12.7059 7.88712Z" stroke="#3C4043" stroke-width="2"/>
<path d="M4.56372 10.7687C5.68814 10.7687 6.59967 9.90866 6.59967 8.84769C6.59967 7.78672 5.68814 6.92664 4.56372 6.92664C3.4393 6.92664 2.52777 7.78672 2.52777 8.84769C2.52777 9.90866 3.4393 10.7687 4.56372 10.7687Z" stroke="#3C4043" stroke-width="2"/>
<path d="M20.8497 10.7687C21.9742 10.7687 22.8857 9.90866 22.8857 8.84769C22.8857 7.78672 21.9742 6.92664 20.8497 6.92664C19.7253 6.92664 18.8138 7.78672 18.8138 8.84769C18.8138 9.90866 19.7253 10.7687 20.8497 10.7687Z" stroke="#3C4043" stroke-width="2"/>
<path d="M20.8507 13.6503H21.1622C21.6441 13.6502 22.1105 13.8115 22.4783 14.1054C22.846 14.3993 23.0914 14.8068 23.1707 15.2553L23.5096 17.1764C23.5583 17.4516 23.5428 17.7335 23.4643 18.0025C23.3857 18.2716 23.246 18.5212 23.0549 18.7341C22.8637 18.947 22.6257 19.1181 22.3574 19.2354C22.0891 19.3527 21.7969 19.4135 21.5012 19.4134H17.7968M4.56312 13.6503H4.25162C3.76967 13.6502 3.30333 13.8115 2.93556 14.1054C2.56779 14.3993 2.32244 14.8068 2.24316 15.2553L1.90417 17.1764C1.85552 17.4516 1.87101 17.7335 1.94954 18.0025C2.02807 18.2716 2.16778 18.5212 2.35893 18.7341C2.55008 18.947 2.78809 19.1181 3.05641 19.2354C3.32473 19.3527 3.61691 19.4135 3.91263 19.4134H7.61704L4.56312 13.6503Z" stroke="#3C4043" stroke-width="2" stroke-linecap="round" stroke-linejoin="round"/>
</g>
<defs>
<clipPath id="clip0_1_1767">
<rect width="24.4314" height="23.0526" fill="white" transform="translate(0.490234 0.202881)"/>
</clipPath>
</defs>
</svg>
