<svg width="26" height="24" viewBox="0 0 26 24" fill="none" xmlns="http://www.w3.org/2000/svg">
<path d="M23.8333 20V12.174C23.8334 11.6295 23.713 11.0908 23.4796 10.5907C23.2462 10.0907 22.9047 9.63992 22.4759 9.266L14.4885 2.298C14.0862 1.94692 13.5536 1.75131 13 1.75131C12.4464 1.75131 11.9138 1.94692 11.5115 2.298L3.52407 9.266C3.09532 9.63992 2.75377 10.0907 2.52036 10.5907C2.28695 11.0908 2.16659 11.6295 2.16666 12.174V20C2.16666 20.5304 2.39493 21.0391 2.80126 21.4142C3.20759 21.7893 3.75869 22 4.33332 22H21.6667C22.2413 22 22.7924 21.7893 23.1987 21.4142C23.6051 21.0391 23.8333 20.5304 23.8333 20Z" stroke="#444444" stroke-width="2" stroke-linecap="round" stroke-linejoin="round"/>
</svg>
