<svg width="29" height="27" viewBox="0 0 29 27" fill="none" xmlns="http://www.w3.org/2000/svg">
<path d="M23.5625 13.9944V11.8125H21.75V14.3438C21.7501 14.5675 21.8456 14.7821 22.0155 14.9403L24.4688 17.2243V18.5625H4.53125V17.2243L6.98447 14.9403C7.15444 14.7821 7.24995 14.5675 7.25 14.3438V10.9688C7.24747 9.78311 7.58105 8.61784 8.21705 7.59064C8.85304 6.56345 9.76892 5.7107 10.8722 5.11853C11.9755 4.52636 13.227 4.21575 14.5005 4.21806C15.774 4.22037 17.0242 4.53552 18.125 5.13169V3.24591C17.2623 2.89028 16.3448 2.66362 15.4062 2.57428V0.84375H13.5938V2.57344C11.3595 2.78516 9.28885 3.76069 7.7823 5.31139C6.27576 6.86209 5.44031 8.8778 5.4375 10.9688V13.9944L2.98428 16.2785C2.81431 16.4367 2.7188 16.6512 2.71875 16.875V19.4062C2.71875 19.63 2.81423 19.8446 2.98418 20.0029C3.15414 20.1611 3.38465 20.25 3.625 20.25H9.96875V21.0938C9.96875 22.2126 10.4461 23.2857 11.2959 24.0769C12.1457 24.868 13.2982 25.3125 14.5 25.3125C15.7018 25.3125 16.8543 24.868 17.7041 24.0769C18.5539 23.2857 19.0312 22.2126 19.0312 21.0938V20.25H25.375C25.6154 20.25 25.8459 20.1611 26.0158 20.0029C26.1858 19.8446 26.2812 19.63 26.2812 19.4062V16.875C26.2812 16.6512 26.1857 16.4367 26.0157 16.2785L23.5625 13.9944ZM17.2188 21.0938C17.2188 21.7651 16.9323 22.4089 16.4224 22.8836C15.9126 23.3583 15.2211 23.625 14.5 23.625C13.7789 23.625 13.0874 23.3583 12.5776 22.8836C12.0677 22.4089 11.7812 21.7651 11.7812 21.0938V20.25H17.2188V21.0938Z" fill="#444444"/>
<path d="M23.5625 10.125C25.5645 10.125 27.1875 8.61396 27.1875 6.75C27.1875 4.88604 25.5645 3.375 23.5625 3.375C21.5605 3.375 19.9375 4.88604 19.9375 6.75C19.9375 8.61396 21.5605 10.125 23.5625 10.125Z" fill="#444444"/>
</svg>
