<svg width="30" height="29" viewBox="0 0 30 29" fill="none" xmlns="http://www.w3.org/2000/svg">
<path d="M15 2.41669C13.7639 2.41669 12.5555 2.77102 11.5277 3.43489C10.4999 4.09876 9.6988 5.04234 9.22575 6.14631C8.75271 7.25028 8.62893 8.46506 8.87009 9.63702C9.11125 10.809 9.7065 11.8855 10.5806 12.7305C11.4547 13.5754 12.5683 14.1508 13.7807 14.3839C14.9931 14.6171 16.2497 14.4974 17.3918 14.0401C18.5338 13.5828 19.5099 12.8085 20.1967 11.8149C20.8834 10.8214 21.25 9.65328 21.25 8.45835C21.25 6.856 20.5915 5.31928 19.4194 4.18625C18.2473 3.05322 16.6576 2.41669 15 2.41669ZM15 12.0834C14.2583 12.0834 13.5333 11.8708 12.9166 11.4724C12.2999 11.0741 11.8193 10.508 11.5355 9.84558C11.2516 9.1832 11.1774 8.45433 11.3221 7.75115C11.4667 7.04797 11.8239 6.40206 12.3483 5.89509C12.8728 5.38813 13.541 5.04288 14.2684 4.90301C14.9958 4.76314 15.7498 4.83492 16.4351 5.10929C17.1203 5.38366 17.706 5.84828 18.118 6.44441C18.5301 7.04054 18.75 7.7414 18.75 8.45835C18.75 9.41976 18.3549 10.3418 17.6517 11.0216C16.9484 11.7014 15.9946 12.0834 15 12.0834ZM26.25 25.375V24.1667C26.25 21.9234 25.3281 19.772 23.6872 18.1857C22.0462 16.5995 19.8206 15.7084 17.5 15.7084H12.5C10.1794 15.7084 7.95376 16.5995 6.31282 18.1857C4.67187 19.772 3.75 21.9234 3.75 24.1667V25.375H6.25V24.1667C6.25 22.5643 6.90848 21.0276 8.08058 19.8946C9.25269 18.7616 10.8424 18.125 12.5 18.125H17.5C19.1576 18.125 20.7473 18.7616 21.9194 19.8946C23.0915 21.0276 23.75 22.5643 23.75 24.1667V25.375H26.25Z" fill="#3C4043"/>
</svg>
